<svg width="60" height="60" fill="none" xmlns="http://www.w3.org/2000/svg"><path d="M55.908 51.621A4.096 4.096 0 0060 47.53V5.86C60 2.63 57.371 0 54.14 0H5.86A5.866 5.866 0 000 5.86v41.67a4.097 4.097 0 004.092 4.091H5.39v6.035H1.17a1.172 1.172 0 000 2.344h57.657a1.172 1.172 0 000-2.344H54.61v-6.035h1.3zM2.344 5.86a3.52 3.52 0 013.515-3.515h48.282a3.52 3.52 0 013.515 3.515v2.579H2.461c-.04 0-.079.002-.117.005V5.86zM12.89 57.656H7.734V47.11h5.157v10.547zm13.125 0h-5.157V34.152h5.157v23.504zm13.125 0h-5.157V44.063h5.157v13.593zM53.438 30.06h-7.5c-.648 0-1.172.524-1.172 1.171v5.918a1.172 1.172 0 002.343 0v-4.746h5.157v25.254h-5.157V45.03a1.172 1.172 0 00-2.343 0v12.627h-3.282V42.891c0-.648-.524-1.172-1.172-1.172h-7.5c-.647 0-1.171.524-1.171 1.172v14.765h-3.282V32.98c0-.647-.524-1.172-1.172-1.172h-7.5c-.647 0-1.171.525-1.171 1.172v24.676h-3.282V45.938c0-.648-.524-1.172-1.171-1.172h-7.5c-.648 0-1.172.524-1.172 1.172v3.34h-1.3a1.75 1.75 0 01-1.747-1.749V10.775c.038.004.078.006.117.006h55.195V47.53a1.75 1.75 0 01-1.748 1.749H54.61V31.23c0-.648-.524-1.172-1.172-1.172z" fill="#303030"/><path d="M52.5 4.219H26.023a1.172 1.172 0 000 2.343H52.5a1.172 1.172 0 000-2.343zM13.016 4.562a1.18 1.18 0 00-.829-.343c-.308 0-.61.125-.828.343a1.18 1.18 0 00-.343.829c0 .308.125.61.343.828.218.218.52.343.829.343.308 0 .61-.125.828-.343a1.18 1.18 0 00.343-.828c0-.309-.125-.61-.343-.829zM8.329 4.562A1.18 1.18 0 007.5 4.22c-.308 0-.61.125-.829.343a1.18 1.18 0 00-.343.829c0 .308.126.61.343.828.218.218.52.343.829.343.308 0 .61-.125.829-.343a1.18 1.18 0 00.343-.828c0-.309-.126-.61-.343-.829zM17.703 4.562a1.179 1.179 0 00-.828-.343c-.308 0-.61.125-.828.343a1.18 1.18 0 00-.344.829c0 .308.126.61.344.828.218.218.52.343.828.343.308 0 .61-.125.828-.343a1.18 1.18 0 00.344-.828c0-.309-.125-.61-.344-.829zM46.766 40.496a1.176 1.176 0 00-.828-.343 1.176 1.176 0 00-1.172 1.172c0 .308.125.61.343.828.218.218.52.344.828.344.309 0 .611-.126.829-.344a1.18 1.18 0 00.343-.828c0-.31-.125-.61-.343-.829zM49.687 15.93a4.223 4.223 0 00-4.218 4.219c0 .924.3 1.779.805 2.475l-7.784 7.784a4.192 4.192 0 00-2.036-.526c-.666 0-1.295.156-1.855.431l-8.128-8.128a4.193 4.193 0 00.526-2.036 4.223 4.223 0 00-4.22-4.219 4.223 4.223 0 00-4.218 4.219c0 .813.232 1.573.632 2.217l-6.92 6.92a4.193 4.193 0 00-2.036-.525 4.223 4.223 0 00-4.22 4.219 4.223 4.223 0 004.22 4.219 4.223 4.223 0 004.218-4.22c0-.737-.19-1.431-.525-2.035l7.003-7.003a4.194 4.194 0 001.847.427c.738 0 1.432-.191 2.036-.526l8.048 8.049a4.194 4.194 0 00-.627 2.21 4.224 4.224 0 004.219 4.219 4.223 4.223 0 004.218-4.219c0-.738-.19-1.432-.525-2.036l7.993-7.993c.48.19 1.001.296 1.547.296a4.224 4.224 0 004.22-4.22 4.223 4.223 0 00-4.22-4.218zM10.235 34.855A1.877 1.877 0 018.36 32.98c0-1.034.84-1.875 1.875-1.875 1.034 0 1.875.841 1.875 1.875a1.877 1.877 0 01-1.875 1.875zm12.543-12.831a1.877 1.877 0 01-1.875-1.875c0-1.034.841-1.875 1.875-1.875s1.875.841 1.875 1.875a1.877 1.877 0 01-1.875 1.875zm13.676 13.952a1.877 1.877 0 01-1.875-1.875c0-1.034.84-1.875 1.875-1.875 1.033 0 1.875.841 1.875 1.875a1.877 1.877 0 01-1.875 1.875zm13.233-13.952a1.877 1.877 0 01-1.875-1.875c0-1.034.842-1.875 1.875-1.875 1.034 0 1.875.841 1.875 1.875a1.877 1.877 0 01-1.875 1.875zM17.383 15.111a1.183 1.183 0 00-.829-.343c-.31 0-.612.125-.83.343a1.18 1.18 0 00-.342.829c0 .308.124.61.342.829.22.217.52.343.83.343.308 0 .61-.125.829-.343.217-.218.343-.52.343-.83 0-.307-.126-.61-.343-.828zM12.188 14.768H6.561a1.172 1.172 0 100 2.344h5.625a1.172 1.172 0 000-2.344zM12.188 20.393H6.561a1.172 1.172 0 100 2.344h5.625a1.172 1.172 0 000-2.344z" fill="#303030"/></svg>