<svg width="100" height="100" fill="none" xmlns="http://www.w3.org/2000/svg"><path d="M93.18 86.036c3.76 0 6.82-3.06 6.82-6.82V9.766C100 4.38 95.62 0 90.234 0H9.766C4.38 0 0 4.38 0 9.766v69.45c0 3.76 3.06 6.82 6.82 6.82h2.164v10.058h-7.03a1.953 1.953 0 000 3.906h96.093a1.953 1.953 0 000-3.906h-7.031V86.036h2.164zM3.906 9.766c0-3.231 2.629-5.86 5.86-5.86h80.468c3.231 0 5.86 2.629 5.86 5.86v4.296H4.102c-.066 0-.131.004-.196.01V9.767zm17.578 86.328h-8.593V78.516h8.593v17.578zm21.875 0h-8.593V56.92h8.593v39.174zm21.875 0h-8.593V73.438h8.593v22.656zm23.829-45.996h-12.5a1.953 1.953 0 00-1.954 1.953v9.863a1.953 1.953 0 003.907 0v-7.91h8.593v42.09h-8.593V75.049a1.953 1.953 0 00-3.907 0v21.045h-5.468v-24.61a1.953 1.953 0 00-1.954-1.953h-12.5a1.953 1.953 0 00-1.953 1.953v24.61h-5.468V54.967a1.953 1.953 0 00-1.953-1.953h-12.5a1.953 1.953 0 00-1.954 1.953v41.127h-5.468V76.563a1.953 1.953 0 00-1.953-1.954h-12.5a1.953 1.953 0 00-1.954 1.954v5.566H6.82a2.917 2.917 0 01-2.914-2.913V17.959c.065.006.13.01.196.01h91.992v61.247a2.917 2.917 0 01-2.914 2.913h-2.164V52.051a1.953 1.953 0 00-1.954-1.953z" fill="#BC6628"/><path d="M87.5 7.031H43.372a1.953 1.953 0 000 3.907H87.5a1.953 1.953 0 000-3.907zM21.693 7.604a1.968 1.968 0 00-1.38-.573c-.514 0-1.018.209-1.381.573a1.968 1.968 0 00-.573 1.38c0 .514.21 1.018.573 1.381.363.364.867.572 1.38.572.514 0 1.018-.208 1.381-.572.364-.363.573-.867.573-1.38 0-.514-.21-1.018-.573-1.381zM13.88 7.604a1.968 1.968 0 00-1.38-.573c-.514 0-1.018.209-1.38.573a1.968 1.968 0 00-.573 1.38c0 .514.209 1.018.572 1.381.363.364.867.572 1.381.572s1.018-.208 1.38-.572c.364-.363.573-.867.573-1.38 0-.514-.209-1.018-.572-1.381zM29.506 7.604a1.965 1.965 0 00-1.381-.573c-.514 0-1.018.209-1.38.573a1.968 1.968 0 00-.573 1.38c0 .514.209 1.018.572 1.381.363.364.867.572 1.381.572s1.018-.208 1.38-.572c.364-.363.573-.867.573-1.38 0-.514-.209-1.018-.572-1.381zM77.943 67.494a1.96 1.96 0 00-1.38-.572 1.96 1.96 0 00-1.381.572 1.968 1.968 0 00-.573 1.381c0 .514.21 1.018.573 1.38a1.97 1.97 0 001.38.573c.514 0 1.018-.209 1.381-.572.364-.363.573-.867.573-1.381 0-.516-.21-1.018-.573-1.38zM82.813 26.55a7.04 7.04 0 00-7.032 7.032c0 1.54.5 2.965 1.342 4.125L64.15 50.68a6.987 6.987 0 00-3.394-.875 6.987 6.987 0 00-3.09.717L44.118 36.976a6.988 6.988 0 00.875-3.394 7.04 7.04 0 00-7.03-7.031 7.04 7.04 0 00-7.032 7.031c0 1.355.386 2.621 1.053 3.696L20.451 48.81a6.987 6.987 0 00-3.393-.875 7.04 7.04 0 00-7.031 7.031 7.04 7.04 0 007.03 7.031 7.04 7.04 0 007.032-7.031c0-1.23-.318-2.387-.875-3.394l11.671-11.671a6.99 6.99 0 003.078.711c1.23 0 2.387-.318 3.393-.876l13.415 13.414a6.988 6.988 0 00-1.046 3.684 7.04 7.04 0 007.031 7.032 7.04 7.04 0 007.031-7.031c0-1.23-.318-2.387-.875-3.394l13.321-13.321c.8.316 1.67.492 2.58.492a7.04 7.04 0 007.03-7.031 7.04 7.04 0 00-7.03-7.031zM17.058 58.093a3.129 3.129 0 01-3.125-3.125 3.129 3.129 0 013.125-3.125 3.129 3.129 0 013.125 3.125 3.129 3.129 0 01-3.125 3.125zm20.905-21.385a3.129 3.129 0 01-3.125-3.125 3.129 3.129 0 013.125-3.125 3.129 3.129 0 013.125 3.125 3.129 3.129 0 01-3.125 3.125zm22.793 23.254a3.129 3.129 0 01-3.125-3.125 3.129 3.129 0 013.125-3.125 3.129 3.129 0 013.125 3.125 3.129 3.129 0 01-3.125 3.125zm22.057-23.254a3.129 3.129 0 01-3.125-3.125 3.129 3.129 0 013.125-3.125 3.129 3.129 0 013.125 3.125 3.129 3.129 0 01-3.125 3.125zM28.97 25.186a1.972 1.972 0 00-1.38-.573c-.516 0-1.02.21-1.383.573s-.57.867-.57 1.38c0 .514.207 1.018.57 1.381.365.364.867.573 1.383.573a1.97 1.97 0 001.38-.573c.364-.363.573-.867.573-1.38 0-.514-.209-1.018-.572-1.381zM20.313 24.613h-9.375a1.953 1.953 0 000 3.907h9.374a1.953 1.953 0 000-3.907zM20.313 33.988h-9.375a1.953 1.953 0 000 3.907h9.374a1.953 1.953 0 000-3.907z" fill="#BC6628"/></svg>