<svg width="60" height="60" fill="none" xmlns="http://www.w3.org/2000/svg"><path d="M57 0H3a3 3 0 00-3 3v41a3 3 0 003 3h17v4a7.008 7.008 0 00-7 7 2 2 0 002 2h30a2 2 0 002-2 7.008 7.008 0 00-7-7v-4h17a3 3 0 003-3V3a3 3 0 00-3-3zM45 58H15a5.006 5.006 0 015-5h20a5.007 5.007 0 015 5zm-7-7H22v-4h16v4zm19-6H3a1 1 0 01-1-1v-5h34a1 1 0 100-2H2V3a1 1 0 011-1h54a1 1 0 011 1v34h-2a1 1 0 100 2h2v5a1 1 0 01-1 1z" fill="#303030"/><path d="M34.332 20.056l-3-1.686-9.7-9.7-1.72-3.06a2.422 2.422 0 00-1.751-1.09 1.987 1.987 0 00-1.612.55l-7 7a1.972 1.972 0 00-.551 1.613 2.45 2.45 0 001.147 1.785l3 1.686 2.023 2.023-8.994 9a4 4 0 005.657 5.657l8.994-8.995 2.024 2.024 1.72 3.06a2.42 2.42 0 001.75 1.09c.075.007.148.01.221.01.52.006 1.02-.197 1.391-.562l7-7a1.969 1.969 0 00.551-1.611 2.45 2.45 0 00-1.15-1.794zM26.478 22l-2.829 2.829-8.485-8.486 5.657-5.657 8.485 8.485L26.478 22zm-15.521-8.517l6.962-6.977h.016a.368.368 0 01.261.139L19.578 9.1l-6 6-2.405-1.347a.643.643 0 01-.216-.27zm-.544 18.93a2 2 0 11-2.829-2.83l8.994-9 2.829 2.83-8.994 9zm16.138-3.4a.35.35 0 01-.277-.138l-1.382-2.461 3-3 3-3 2.4 1.347c.096.07.172.165.219.274l-6.96 6.978zM48.856 33.2l.944-.754a2 2 0 00-.444-3.39L38.808 24.4a2 2 0 00-2.731 2.373l3.014 10.677a2 2 0 003.174 1.02l1.888-1.512 3.856 4.365a2 2 0 001.437.677h.061c.53 0 1.04-.211 1.415-.586L52.337 40c.742-.746.781-1.94.089-2.733l-3.57-4.067zm.652 6.8l-4.486-5.079a1 1 0 00-1.374-.119l-2.632 2.106L38 26.231l10.549 4.65-1.759 1.407a1 1 0 00-.128 1.44l4.259 4.858L49.508 40zM39 21a1 1 0 001-1v-3a1 1 0 10-2 0v3a1 1 0 001 1zM43.707 22.707l2.5-2.5a1 1 0 00-1.414-1.414l-2.5 2.5a1 1 0 101.414 1.414zM30 7h2a1 1 0 100-2h-2a1 1 0 100 2zM54 5H36a1 1 0 100 2h18a1 1 0 100-2zM32 41h-4a1 1 0 100 2h4a1 1 0 100-2z" fill="#303030"/></svg>