<svg width="100" height="100" fill="none" xmlns="http://www.w3.org/2000/svg"><path d="M95 0H5a5 5 0 00-5 5v68.333a5 5 0 005 5h28.333V85c-6.44.007-11.659 5.226-11.666 11.667A3.333 3.333 0 0025 100h50a3.333 3.333 0 003.333-3.333c-.007-6.44-5.226-11.66-11.666-11.667v-6.667H95a5 5 0 005-5V5a5 5 0 00-5-5zM75 96.667H25a8.343 8.343 0 018.333-8.334h33.334A8.345 8.345 0 0175 96.667zM63.333 85H36.667v-6.667h26.666V85zM95 75H5c-.92 0-1.667-.746-1.667-1.667V65H60a1.667 1.667 0 100-3.333H3.333V5c0-.92.747-1.667 1.667-1.667h90c.92 0 1.667.747 1.667 1.667v56.667h-3.334a1.667 1.667 0 000 3.333h3.334v8.333c0 .92-.746 1.667-1.667 1.667z" fill="#F54BC0"/><path d="M57.22 33.426l-5-2.81L36.053 14.45l-2.866-5.1a4.037 4.037 0 00-2.919-1.817 3.312 3.312 0 00-2.686.918L15.915 20.118a3.287 3.287 0 00-.918 2.687 4.082 4.082 0 001.911 2.975l5 2.81 3.372 3.371-14.99 15a6.667 6.667 0 009.428 9.429l14.99-14.992 3.374 3.373 2.866 5.1a4.033 4.033 0 002.917 1.817c.125.012.247.018.368.018a3.259 3.259 0 002.319-.938l11.666-11.667a3.281 3.281 0 00.919-2.685 4.085 4.085 0 00-1.917-2.99zm-13.09 3.24l-4.715 4.716-14.142-14.144 9.429-9.428L48.843 31.95l-4.713 4.715zM18.262 22.471l11.603-11.628h.027a.613.613 0 01.435.232l2.303 4.091-10 10-4.008-2.245a1.072 1.072 0 01-.36-.45zm-.907 31.55a3.334 3.334 0 11-4.715-4.715l14.99-15 4.715 4.716-14.99 15zm26.897-5.666a.582.582 0 01-.462-.23l-2.303-4.102 5-5 5-5 4 2.245c.16.117.286.275.365.457l-11.6 11.63zM81.427 55.333L83 54.077a3.333 3.333 0 00-.74-5.652l-17.58-7.758a3.333 3.333 0 00-4.552 3.954l5.024 17.795a3.334 3.334 0 005.29 1.699l3.146-2.518 6.427 7.274A3.334 3.334 0 0082.41 70h.102a3.348 3.348 0 002.358-.977l2.358-2.356a3.343 3.343 0 00.149-4.556l-5.95-6.778zm1.086 11.334l-7.476-8.465a1.667 1.667 0 00-2.29-.199l-4.387 3.51-5.027-17.795 17.582 7.75-2.932 2.345a1.667 1.667 0 00-.213 2.4l7.098 8.097-2.355 2.356zM65 35c.92 0 1.667-.746 1.667-1.667v-5a1.667 1.667 0 10-3.334 0v5c0 .92.746 1.667 1.667 1.667zM72.845 37.845l4.167-4.166a1.667 1.667 0 00-2.357-2.357l-4.167 4.167a1.667 1.667 0 102.357 2.356zM50 11.666h3.333a1.667 1.667 0 000-3.333H50a1.667 1.667 0 100 3.333zM90 8.333H60a1.667 1.667 0 100 3.333h30a1.667 1.667 0 000-3.333zM53.333 68.334h-6.666a1.667 1.667 0 100 3.333h6.666a1.667 1.667 0 100-3.334z" fill="#F54BC0"/></svg>