<svg width="65" height="60" fill="none" xmlns="http://www.w3.org/2000/svg"><path d="M59.522 16.026a7.229 7.229 0 00-4.146-4.143 7.215 7.215 0 00-6.715-4.626H28.62a11.442 11.442 0 00-1.558-1.378l-2.424-2.597C22.613 1.073 20.297 0 17.56 0H7.192C3.226 0 0 3.226 0 7.192v37.322a7.215 7.215 0 004.626 6.715 7.227 7.227 0 004.143 4.146C9.805 58.076 12.424 60 15.486 60h41.469c3.965 0 7.192-3.226 7.192-7.192V22.743c0-3.062-1.924-5.681-4.625-6.717zm-2.444-.472l-.123-.003H36.643l-2.056-2.203h18.22c1.718 0 3.3.847 4.271 2.206zm-4.147-4.148l-.123-.002H33.11a.972.972 0 00-.297.046c-.84-.891-1.729-1.592-2.677-2.103a.97.97 0 00.003-.146H48.66a5.26 5.26 0 014.27 2.205zM1.944 44.514V7.192a5.254 5.254 0 015.248-5.248H17.56c2.03 0 3.717.723 5.277 2.27a9.824 9.824 0 00-1.13-.067H11.34c-3.966 0-7.192 3.226-7.192 7.192v37.322l.002.123a5.26 5.26 0 01-2.205-4.27zm4.147 4.147V11.339a5.254 5.254 0 015.248-5.248h10.367c1.514 0 2.837.402 4.06 1.247l.927.994a9.888 9.888 0 00-.84-.038H15.486c-3.966 0-7.192 3.226-7.192 7.192v37.322l.003.123a5.26 5.26 0 01-2.206-4.27zm56.112 4.147a5.254 5.254 0 01-5.248 5.248H15.486a5.254 5.254 0 01-5.248-5.248V28.963a5.254 5.254 0 015.248-5.248h41.469a5.254 5.254 0 015.248 5.248v23.845zM56.955 21.77H15.486c-2.069 0-3.935.88-5.248 2.282v-8.567a5.254 5.254 0 015.248-5.248h10.367c2.193 0 3.987.842 5.653 2.658l4.004 4.29a.971.971 0 00.71.309h20.735a5.254 5.254 0 015.248 5.248v1.31a7.172 7.172 0 00-5.248-2.282z" fill="#303030"/><path d="M56.955 27.991H45.55a.972.972 0 100 1.944h11.404a.972.972 0 000-1.944zM56.955 32.138H45.55a.972.972 0 100 1.944h11.404a.972.972 0 100-1.944z" fill="#303030"/></svg>