<svg width="107" height="100" fill="none" xmlns="http://www.w3.org/2000/svg"><path d="M99.203 26.71a12.048 12.048 0 00-6.91-6.905c-1.776-4.624-6.235-7.71-11.192-7.71H47.703a19.065 19.065 0 00-2.598-2.297l-4.04-4.328C37.688 1.789 33.828 0 29.265 0H11.988C5.377 0 0 5.377 0 11.987V74.19c0 4.957 3.086 9.415 7.71 11.192a12.045 12.045 0 006.905 6.91C16.342 96.793 20.707 100 25.81 100h69.114c6.61 0 11.987-5.377 11.987-11.987V37.905c0-5.103-3.206-9.468-7.708-11.195zm-4.073-.787c-.069-.001-.137-.005-.206-.005H61.071l-3.426-3.672h30.368a8.769 8.769 0 017.117 3.677zm-6.912-6.912c-.069-.002-.137-.005-.205-.005h-32.83c-.172 0-.338.028-.494.078-1.4-1.486-2.882-2.655-4.462-3.506.007-.081.01-.162.004-.243h30.87a8.766 8.766 0 017.117 3.676zM3.24 74.19V11.986c0-4.823 3.924-8.747 8.747-8.747h17.279c3.381 0 6.194 1.205 8.795 3.782a16.377 16.377 0 00-1.884-.11H18.898c-6.61 0-11.987 5.377-11.987 11.986v62.204c0 .068.003.136.005.204A8.767 8.767 0 013.24 74.19zm6.911 6.91V18.898c0-4.823 3.924-8.747 8.747-8.747h17.28c2.522 0 4.728.67 6.765 2.08l1.545 1.655c-.46-.04-.925-.063-1.4-.063H25.81c-6.61 0-11.987 5.377-11.987 11.987v62.203c0 .069.004.137.005.206a8.767 8.767 0 01-3.677-7.117zm93.521 6.912c0 4.823-3.924 8.747-8.748 8.747H25.81c-4.823 0-8.747-3.924-8.747-8.747v-39.74c0-4.824 3.924-8.748 8.747-8.748h69.114c4.824 0 8.748 3.924 8.748 8.747v39.741zm-8.748-51.728H25.81a11.953 11.953 0 00-8.747 3.804v-14.28c0-4.822 3.924-8.746 8.747-8.746h17.279c3.654 0 6.645 1.404 9.421 4.43l6.673 7.15a1.62 1.62 0 001.184.515h34.557c4.824 0 8.748 3.924 8.748 8.747v2.184a11.954 11.954 0 00-8.748-3.804z" fill="#1F5190"/><path d="M94.924 46.652H75.918a1.62 1.62 0 100 3.24h19.006a1.62 1.62 0 100-3.24zM94.924 53.563H75.918a1.62 1.62 0 100 3.24h19.006a1.62 1.62 0 100-3.24z" fill="#1F5190"/></svg>