<svg width="60" height="64" fill="none" xmlns="http://www.w3.org/2000/svg"><path d="M54.004 43.773h-1.833c.164-.549.25-1.123.25-1.71V5.936A5.944 5.944 0 0046.482 0H5.937A5.944 5.944 0 000 5.937V17.23a.938.938 0 001.875 0v-4.307h29.353a.938.938 0 000-1.875H1.875v-5.11a4.067 4.067 0 014.062-4.062h40.546a4.067 4.067 0 014.062 4.062v5.11h-7.297V9.644a1.94 1.94 0 00-1.938-1.937h-1.874A2.733 2.733 0 0036.902 9.4a8.507 8.507 0 01-7.884 5.27h-15.19a3.442 3.442 0 00-3.437 3.437v.65H7.722c-1.88 0-3.41 1.53-3.41 3.41 0 1.88 1.53 3.41 3.41 3.41h2.67v.65a3.441 3.441 0 003.437 3.437h2.24l1.64 3.117a.938.938 0 001.66-.873l-1.182-2.244h7.14l-.32 3.478a7.822 7.822 0 002.48 6.44l.325.298a4.475 4.475 0 00-1.04 2.871v.19l-1.028.458a.313.313 0 01-.403-.14l-4.007-7.614a.937.937 0 10-1.66.873l4.007 7.614c.389.74 1.151 1.196 1.94 1.169.631-.022 1.152-.307 1.152-.307v1.131H5.937a4.067 4.067 0 01-4.062-4.062V21.824a.937.937 0 00-1.875 0v20.239A5.944 5.944 0 005.937 48h20.836v5.949a4.501 4.501 0 004.496 4.496h5.815v1.022a4.501 4.501 0 004.497 4.496h12.423a4.501 4.501 0 004.497-4.496V48.269a4.501 4.501 0 00-4.497-4.496zm2.622 4.496v1.537h-8.437v-4.158h5.815a2.624 2.624 0 012.622 2.621zm-27.978-5.518a2.624 2.624 0 012.621-2.621h12.424a2.624 2.624 0 012.62 2.62v1.538H28.649V42.75zm14.6-24.58a4.004 4.004 0 013.85 3.995 4.004 4.004 0 01-3.85 3.997V18.17zm-4.613-8.054a.864.864 0 01.8-.535h1.875c.034 0 .063.028.063.062V34.69a.063.063 0 01-.063.062h-1.874a.864.864 0 01-.801-.535 10.377 10.377 0 00-9.617-6.427h-3.632V16.544h3.632c4.226 0 8-2.523 9.617-6.427zM7.722 23.702a1.537 1.537 0 01-1.535-1.535c0-.847.688-1.536 1.535-1.536h2.67v3.071h-2.67zm4.544 2.524v-8.12c0-.86.701-1.562 1.563-1.562h5.73V27.79h-5.73a1.564 1.564 0 01-1.563-1.563zm9.168 1.563V16.544h2.077V27.79h-2.077zm7.584 1.875a8.507 8.507 0 017.884 5.27 2.734 2.734 0 002.534 1.693h1.874a1.94 1.94 0 001.938-1.938v-6.65a5.88 5.88 0 005.724-5.872 5.881 5.881 0 00-5.724-5.872v-3.372h7.298v29.14c0 .6-.132 1.179-.38 1.71H48.19v-1.022a4.501 4.501 0 00-4.496-4.496H31.269a4.47 4.47 0 00-1.963.452l-.55-.506c-.22-.201-.42-.42-.604-.65a3.409 3.409 0 002.167-3.17 3.408 3.408 0 00-3.23-3.4l.121-1.317h1.808zm-1.806 6.216a5.9 5.9 0 01-.339-2.566l.043-.463a1.53 1.53 0 011.528 1.53c0 .74-.53 1.36-1.232 1.499zm1.436 18.069v-7.786h17.666v7.786a2.624 2.624 0 01-2.622 2.621H31.27a2.624 2.624 0 01-2.621-2.621zm25.356 8.14H41.581a2.624 2.624 0 01-2.621-2.622v-1.022h2.436a.937.937 0 00.927 1.068H53.42a.938.938 0 000-1.875h-7.162a4.521 4.521 0 001.592-1.979h5.57a.938.938 0 000-1.875h-5.232v-2.103h8.437v7.786a2.624 2.624 0 01-2.62 2.621z" fill="#303030"/><path d="M5.365 6.545a2.946 2.946 0 002.942 2.943 2.946 2.946 0 002.943-2.943 2.946 2.946 0 00-2.943-2.942 2.946 2.946 0 00-2.942 2.942zm4.01 0a1.069 1.069 0 01-2.135 0 1.069 1.069 0 012.135 0zM15.23 5.731a.937.937 0 000 1.875h7.504a.938.938 0 000-1.875h-7.503zM26.725 5.731a.937.937 0 000 1.875h2.717a.938.938 0 000-1.875h-2.717zM59.063 22.104H55.39a.938.938 0 000 1.875h3.672a.937.937 0 000-1.875zM55.391 16.422a.934.934 0 00.615-.23l2.738-2.384a.937.937 0 10-1.231-1.414l-2.738 2.383a.937.937 0 00.616 1.645zM58.744 32.275l-2.738-2.383a.937.937 0 10-1.23 1.414l2.737 2.383a.933.933 0 001.322-.091c.34-.39.3-.983-.091-1.323zM44.045 49.204a.938.938 0 00-.937-.938H32.012a.938.938 0 000 1.875h11.096c.518 0 .937-.42.937-.937zM39.184 52.12h-7.172a.938.938 0 000 1.875h7.172a.938.938 0 000-1.875z" fill="#303030"/></svg>