<svg width="100" height="107" fill="none" xmlns="http://www.w3.org/2000/svg"><path d="M90.007 72.954h-3.055c.274-.913.415-1.87.415-2.85V9.896c0-5.457-4.44-9.896-9.895-9.896H9.896C4.439 0 0 4.44 0 9.896v18.819a1.563 1.563 0 003.125 0v-7.178h48.922a1.563 1.563 0 000-3.125H3.125V9.896a6.779 6.779 0 016.77-6.771h67.577a6.779 6.779 0 016.77 6.77v8.517H72.08v-2.338c0-1.781-1.448-3.23-3.229-3.23h-3.124a4.556 4.556 0 00-4.222 2.823 14.179 14.179 0 01-13.14 8.782H23.048a5.736 5.736 0 00-5.73 5.73v1.082H12.87a5.69 5.69 0 00-5.684 5.684 5.69 5.69 0 005.684 5.684h4.449v1.082c0 3.159 2.57 5.729 5.73 5.729h3.732l2.734 5.195a1.564 1.564 0 002.765-1.455l-1.968-3.74h11.9l-.535 5.797c-.369 4.001 1.177 8.013 4.135 10.732l.54.498a7.46 7.46 0 00-1.73 4.785v.316l-1.715.764a.522.522 0 01-.672-.233l-6.678-12.69a1.562 1.562 0 00-2.765 1.454l6.677 12.691c.648 1.232 1.918 1.993 3.234 1.947a4.799 4.799 0 001.918-.511v1.886H9.896a6.779 6.779 0 01-6.771-6.771V36.374a1.563 1.563 0 00-3.125 0v33.73C0 75.561 4.44 80 9.896 80H44.62v9.915c0 4.132 3.362 7.494 7.494 7.494h9.692v1.703c0 4.132 3.362 7.493 7.494 7.493h20.706c4.132 0 7.494-3.361 7.494-7.493V80.449c0-4.133-3.362-7.495-7.494-7.495zm4.37 7.494v2.561H80.314v-6.93h9.692a4.374 4.374 0 014.37 4.37zm-46.63-9.197a4.374 4.374 0 014.368-4.368h20.706c2.409 0 4.369 1.96 4.369 4.368v2.562H47.746V71.25zm24.332-40.967c3.56.132 6.417 3.068 6.417 6.66s-2.857 6.528-6.417 6.66v-13.32zm-7.688-13.422a1.44 1.44 0 011.335-.892h3.124c.058 0 .104.046.104.104v41.74a.104.104 0 01-.104.105h-3.124a1.44 1.44 0 01-1.335-.892 17.294 17.294 0 00-16.027-10.713H42.31v-18.74h6.054A17.294 17.294 0 0064.39 16.862zm-51.52 22.641a2.562 2.562 0 01-2.56-2.559 2.562 2.562 0 012.56-2.559h4.448v5.119H12.87zm7.573 4.208V30.178a2.607 2.607 0 012.604-2.604h9.55v18.74h-9.55a2.607 2.607 0 01-2.604-2.603zm15.279 2.604V27.574h3.462v18.74h-3.462zm12.64 3.125a14.179 14.179 0 0113.14 8.782 4.556 4.556 0 004.223 2.822h3.124c1.78 0 3.23-1.448 3.23-3.229V46.73c5.283-.134 9.54-4.47 9.54-9.785 0-5.316-4.257-9.652-9.54-9.786v-5.621h12.163v48.567a6.721 6.721 0 01-.632 2.85h-3.296v-1.703c0-4.132-3.362-7.494-7.494-7.494H52.115a7.448 7.448 0 00-3.271.753l-.917-.842c-.366-.336-.7-.7-1.007-1.084a5.682 5.682 0 003.612-5.284 5.68 5.68 0 00-5.384-5.667l.202-2.194h3.014zm-3.01 10.36a9.834 9.834 0 01-.564-4.276l.071-.772a2.551 2.551 0 012.547 2.548 2.553 2.553 0 01-2.053 2.5zm2.393 30.115V76.938H77.19v12.977a4.374 4.374 0 01-4.37 4.369H52.116a4.374 4.374 0 01-4.369-4.37zm42.261 13.565H69.301a4.374 4.374 0 01-4.368-4.369v-1.703h4.061a1.562 1.562 0 001.545 1.78h18.494a1.563 1.563 0 000-3.125H77.097a7.534 7.534 0 002.653-3.298h9.283a1.563 1.563 0 000-3.124h-8.719v-3.507h14.062v12.978c0 2.409-1.96 4.368-4.369 4.368z" fill="#D74255"/><path d="M8.941 10.909a4.91 4.91 0 004.904 4.904 4.91 4.91 0 004.904-4.904 4.91 4.91 0 00-4.904-4.904 4.91 4.91 0 00-4.904 4.904zm6.683 0c0 .98-.798 1.779-1.779 1.779-.98 0-1.779-.798-1.779-1.78 0-.98.798-1.778 1.78-1.778.98 0 1.778.798 1.778 1.779zM25.385 9.553a1.563 1.563 0 000 3.125H37.89a1.563 1.563 0 000-3.125H25.385zM44.541 9.553a1.563 1.563 0 000 3.125h4.528a1.562 1.562 0 000-3.125h-4.528zM98.438 36.84h-6.12a1.563 1.563 0 000 3.125h6.12a1.562 1.562 0 000-3.125zM92.318 27.37c.364 0 .73-.127 1.026-.385l4.563-3.973a1.562 1.562 0 10-2.052-2.356l-4.563 3.972a1.562 1.562 0 001.026 2.741zM97.906 53.792l-4.562-3.972a1.562 1.562 0 10-2.052 2.356l4.563 3.973a1.558 1.558 0 002.204-.152 1.563 1.563 0 00-.153-2.205zM73.409 82.006c0-.863-.7-1.562-1.563-1.562H53.354a1.563 1.563 0 000 3.125h18.494c.863 0 1.562-.7 1.562-1.563zM65.306 86.867H53.353a1.563 1.563 0 000 3.125h11.953a1.563 1.563 0 000-3.125z" fill="#D74255"/></svg>