<svg width="96" height="101" fill="none" xmlns="http://www.w3.org/2000/svg"><path d="M91.068 45.489c-.129-5.347-1.21-10.519-3.223-15.402a3.94 3.94 0 001.512-1.964 3.935 3.935 0 00-.23-3.097A46.246 46.246 0 0076.522 9.9a1.463 1.463 0 00-1.802 2.306 43.338 43.338 0 0111.814 14.176.984.984 0 01.057.785.99.99 0 01-.534.585l-6.908 3.115a.997.997 0 01-1.284-.43 34.062 34.062 0 00-30.031-17.952 34.062 34.062 0 00-30.031 17.951.996.996 0 01-1.284.431L9.61 27.752a.99.99 0 01-.534-.585.985.985 0 01.058-.786C16.69 11.914 31.52 2.926 47.834 2.926c7.623 0 15.155 2.02 21.782 5.84a1.464 1.464 0 001.462-2.535A46.61 46.61 0 0047.834 0a46.547 46.547 0 00-24.172 6.78A46.613 46.613 0 006.54 25.027a3.936 3.936 0 00-.23 3.096 3.941 3.941 0 001.513 1.965 42.897 42.897 0 00-3.22 15.224C1.918 46.314 0 48.905 0 51.935V63.98a1.463 1.463 0 102.926 0V51.935a4.145 4.145 0 014.141-4.14h3.813a4.146 4.146 0 014.14 4.14v21.223a4.145 4.145 0 01-4.14 4.14H7.067a4.146 4.146 0 01-4.14-4.14v-2.753a1.463 1.463 0 10-2.927 0v2.753a7.075 7.075 0 007.067 7.067h3.813a7.075 7.075 0 007.067-7.067V51.935c0-3.015-1.898-5.593-4.561-6.607.14-4.01.967-7.904 2.46-11.604 1.743.5 3.654-.266 4.534-1.901A31.14 31.14 0 0147.834 15.41a31.14 31.14 0 0127.454 16.412 3.929 3.929 0 004.535 1.904 34.065 34.065 0 012.453 11.456c-2.88.893-4.979 3.582-4.979 6.752v21.223c0 2.706 1.53 5.061 3.77 6.248-2.015 4.53-6.26 7.753-11.186 8.437a6.45 6.45 0 00-1.983-2.135 1.463 1.463 0 00-1.638 2.425 3.52 3.52 0 011.553 2.92v2.632c0 1.941-1.579 3.52-3.52 3.52H57.15a3.524 3.524 0 01-3.52-3.52v-2.633c0-1.94 1.579-3.52 3.52-3.52h2.986a1.463 1.463 0 100-2.926H57.15a6.453 6.453 0 00-6.446 6.446v2.633a6.453 6.453 0 006.446 6.446h7.143a6.45 6.45 0 005.717-3.473 22.968 22.968 0 0012.824-5.367c3.565-3.01 6.097-6.924 7.36-11.361 2.917-.87 5.05-3.576 5.05-6.772V51.935a7.076 7.076 0 00-4.176-6.446zM13.159 32.562a36.967 36.967 0 00-2.682 12.306H7.548A39.955 39.955 0 0110.47 31.35l2.69 1.212zM85.19 44.868a36.959 36.959 0 00-2.682-12.306l2.69-1.213a39.964 39.964 0 012.921 13.52H85.19zM70.74 93.63v-2.578a6.52 6.52 0 00-.013-.38c5.874-.975 10.886-4.952 13.179-10.463.151.01.304.016.458.016h2.665c-2.486 7.087-8.849 12.337-16.29 13.405zm21.578-20.472a4.145 4.145 0 01-4.14 4.14h-3.814a4.145 4.145 0 01-4.14-4.14V51.935a4.145 4.145 0 014.14-4.14h3.813a4.145 4.145 0 014.14 4.14v21.223z" fill="#30AAF7"/><path d="M50.425 68.275a1.466 1.466 0 01-1.363-2.01l6.062-15.238a1.466 1.466 0 112.726 1.084L51.788 67.35c-.228.575-.78.925-1.363.925zM64.552 68.275a1.467 1.467 0 01-1.342-2.058l5.795-13.182h-6.137a1.467 1.467 0 110-2.933h8.384a1.467 1.467 0 011.343 2.057l-6.7 15.239c-.24.55-.779.877-1.343.877zM42.793 68.274h-.013a1.467 1.467 0 01-1.454-1.48l.024-3.017h-6.144a1.467 1.467 0 01-1.284-2.176c.857-1.553 5.175-9.354 6.05-10.428.73-.896 1.716-1.261 2.636-.977.93.289 1.592 1.194 1.685 2.307.046.548.033 4.62.01 8.34h.473a1.467 1.467 0 110 2.933h-.492l-.024 3.044a1.467 1.467 0 01-1.467 1.454zm-5.096-7.431h3.672c.015-2.506.025-4.923.02-6.465-.879 1.475-2.274 3.925-3.692 6.465z" fill="#30AAF7"/><path d="M27.648 68.427c-2.928 0-3.143-.072-3.34-.138a1.54 1.54 0 01-1.003-1.013c-.255-.83.102-1.296 1.054-2.543.775-1.015 2.218-2.904 4.635-6.357.718-1.026 1.181-1.945 1.377-2.732l.052-.408a2.436 2.436 0 00-2.431-2.35c-1.16 0-2.164.824-2.387 1.96a1.468 1.468 0 01-2.879-.566 5.375 5.375 0 015.265-4.327 5.372 5.372 0 015.367 5.366c0 .062-.004.124-.012.185l-.076.59a1.49 1.49 0 01-.026.146c-.271 1.17-.892 2.454-1.847 3.817-1.8 2.573-3.07 4.292-3.93 5.433a343.68 343.68 0 005.051-.035 1.467 1.467 0 11.037 2.933c-2.17.028-3.75.039-4.907.039z" fill="#30AAF7"/></svg>