<svg width="58" height="60" fill="none" xmlns="http://www.w3.org/2000/svg"><path d="M54.57 27.258a25.715 25.715 0 00-1.932-9.23c.417-.283.74-.695.906-1.176.21-.609.16-1.285-.138-1.856a27.71 27.71 0 00-7.553-9.064.877.877 0 00-1.08 1.382 25.97 25.97 0 017.08 8.494.59.59 0 01.034.47.593.593 0 01-.32.352l-4.14 1.866a.597.597 0 01-.77-.258A20.41 20.41 0 0028.664 7.481a20.41 20.41 0 00-17.995 10.757.597.597 0 01-.77.258l-4.14-1.867a.593.593 0 01-.32-.35.59.59 0 01.035-.47 26.086 26.086 0 0123.19-14.056c4.567 0 9.081 1.21 13.052 3.5a.877.877 0 00.876-1.52A27.93 27.93 0 0028.663 0a27.891 27.891 0 00-14.484 4.063 27.931 27.931 0 00-10.26 10.933 2.359 2.359 0 00-.138 1.856c.167.482.49.894.907 1.177a25.705 25.705 0 00-1.93 9.122A4.242 4.242 0 000 31.121v7.217a.877.877 0 101.753 0V31.12a2.484 2.484 0 012.482-2.481h2.284a2.484 2.484 0 012.482 2.481v12.717a2.484 2.484 0 01-2.482 2.482H4.235a2.484 2.484 0 01-2.482-2.482v-1.65a.877.877 0 10-1.753 0v1.65a4.24 4.24 0 004.235 4.235h2.284a4.24 4.24 0 004.235-4.235V31.12a4.241 4.241 0 00-2.733-3.959c.084-2.403.58-4.736 1.474-6.953 1.045.3 2.19-.16 2.717-1.14a18.66 18.66 0 0116.45-9.834 18.659 18.659 0 0116.452 9.835 2.354 2.354 0 002.717 1.14 20.415 20.415 0 011.47 6.866 4.242 4.242 0 00-2.983 4.045v12.717c0 1.622.916 3.033 2.258 3.744a8.673 8.673 0 01-6.702 5.056 3.865 3.865 0 00-1.188-1.28.877.877 0 00-.982 1.453 2.11 2.11 0 01.93 1.75v1.578c0 1.163-.945 2.109-2.108 2.109h-4.281a2.111 2.111 0 01-2.11-2.11V54.56c0-1.163.947-2.11 2.11-2.11h1.79a.877.877 0 100-1.753h-1.79a3.867 3.867 0 00-3.862 3.863v1.578A3.867 3.867 0 0034.245 60h4.28c1.488 0 2.78-.846 3.426-2.08a13.762 13.762 0 007.684-3.217 13.824 13.824 0 004.411-6.808 4.241 4.241 0 003.026-4.058V31.12a4.24 4.24 0 00-2.503-3.862zM7.884 19.512a22.151 22.151 0 00-1.607 7.374H4.523a23.942 23.942 0 011.75-8.1l1.612.726zm43.162 7.374a22.147 22.147 0 00-1.607-7.374l1.612-.727a23.945 23.945 0 011.75 8.1h-1.755zm-8.66 29.218V54.56c0-.077-.002-.153-.006-.229a10.434 10.434 0 007.897-6.269c.09.006.182.01.274.01h1.597c-1.49 4.247-5.302 7.393-9.761 8.032zm12.931-12.267a2.484 2.484 0 01-2.481 2.482h-2.285a2.484 2.484 0 01-2.481-2.482V31.12a2.484 2.484 0 012.481-2.481h2.285a2.484 2.484 0 012.481 2.481v12.717z" fill="#303030"/><path d="M30.216 40.911a.879.879 0 01-.816-1.204l3.631-9.131a.879.879 0 111.633.65l-3.632 9.13a.879.879 0 01-.816.555zM38.68 40.911a.88.88 0 01-.804-1.233l3.473-7.899h-3.677a.879.879 0 110-1.758h5.023a.879.879 0 01.805 1.233l-4.014 9.131a.88.88 0 01-.805.526zM25.642 40.91h-.007a.879.879 0 01-.872-.886l.015-1.808h-3.682a.879.879 0 01-.77-1.304c.514-.93 3.101-5.605 3.626-6.248.438-.538 1.028-.756 1.58-.586.557.173.953.716 1.009 1.382.027.33.02 2.769.006 4.998h.283a.879.879 0 110 1.758h-.294l-.015 1.823a.88.88 0 01-.879.872zm-3.053-4.452h2.2c.009-1.502.015-2.95.012-3.874-.527.884-1.363 2.352-2.212 3.874z" fill="#303030"/><path d="M16.567 41.002c-1.755 0-1.884-.043-2.002-.082a.923.923 0 01-.6-.607c-.153-.497.06-.777.632-1.524.464-.608 1.328-1.74 2.777-3.81.43-.614.707-1.165.825-1.637l.03-.244a1.46 1.46 0 00-1.456-1.408 1.46 1.46 0 00-1.43 1.174.88.88 0 01-1.725-.339 3.221 3.221 0 013.155-2.593 3.22 3.22 0 013.215 3.216.86.86 0 01-.007.11l-.045.354a.891.891 0 01-.016.087c-.162.701-.535 1.471-1.107 2.288a112.752 112.752 0 01-2.354 3.255c.865.003 1.98-.008 3.026-.02a.879.879 0 11.022 1.758c-1.3.016-2.247.022-2.94.022z" fill="#303030"/></svg>