<svg width="214" height="277" fill="none" xmlns="http://www.w3.org/2000/svg"><g opacity=".3" filter="url(#filter0_f)"><path d="M183.865 247H35.037v-32.227l68.555-72.07c16.894-19.238 25.342-34.521 25.342-45.85 0-9.18-2.002-16.162-6.006-20.947-4.004-4.785-9.815-7.178-17.432-7.178-7.52 0-13.623 3.223-18.31 9.669-4.688 6.347-7.032 14.306-7.032 23.876H30.643c0-13.085 3.271-25.146 9.814-36.181C47 54.959 56.082 46.268 67.703 40.018c11.621-6.25 24.61-9.375 38.965-9.375 23.047 0 40.771 5.322 53.174 15.966 12.5 10.645 18.75 25.928 18.75 45.85 0 8.398-1.563 16.602-4.688 24.609-3.125 7.911-8.008 16.26-14.648 25.049-6.543 8.692-17.139 20.362-31.787 35.01l-27.54 31.787h83.936V247z" fill="#5160E0"/></g><defs><filter id="filter0_f" x=".643" y=".643" width="213.223" height="276.357" filterUnits="userSpaceOnUse" color-interpolation-filters="sRGB"><feFlood flood-opacity="0" result="BackgroundImageFix"/><feBlend in="SourceGraphic" in2="BackgroundImageFix" result="shape"/><feGaussianBlur stdDeviation="15" result="effect1_foregroundBlur"/></filter></defs></svg>