<svg width="102" height="127" fill="none" xmlns="http://www.w3.org/2000/svg"><g opacity=".3" filter="url(#filter0_f)"><path d="M81.746 107H22.215V94.11L49.637 65.28c6.758-7.695 10.136-13.808 10.136-18.34 0-3.672-.8-6.464-2.402-8.379-1.602-1.914-3.926-2.87-6.973-2.87-3.007 0-5.449 1.288-7.324 3.867-1.875 2.539-2.812 5.722-2.812 9.55H20.457c0-5.234 1.309-10.058 3.926-14.472 2.617-4.453 6.25-7.93 10.898-10.43 4.649-2.5 9.844-3.75 15.586-3.75 9.219 0 16.309 2.129 21.27 6.387 5 4.258 7.5 10.37 7.5 18.34 0 3.359-.625 6.64-1.875 9.843-1.25 3.164-3.203 6.504-5.86 10.02-2.617 3.476-6.855 8.144-12.715 14.004L48.172 91.766h33.574V107z" fill="#5160E0"/></g><defs><filter id="filter0_f" x=".457" y=".457" width="101.289" height="126.543" filterUnits="userSpaceOnUse" color-interpolation-filters="sRGB"><feFlood flood-opacity="0" result="BackgroundImageFix"/><feBlend in="SourceGraphic" in2="BackgroundImageFix" result="shape"/><feGaussianBlur stdDeviation="10" result="effect1_foregroundBlur"/></filter></defs></svg>