<svg width="216" height="280" fill="none" xmlns="http://www.w3.org/2000/svg"><g opacity=".3" filter="url(#filter0_f)"><path d="M82.154 119.705h23.291c18.457 0 27.686-9.033 27.686-27.1 0-7.03-2.197-12.744-6.592-17.138-4.394-4.492-10.596-6.739-18.603-6.739-6.543 0-12.256 1.905-17.14 5.713-4.784 3.809-7.177 8.545-7.177 14.21H34.254c0-11.231 3.125-21.24 9.375-30.03 6.25-8.789 14.893-15.625 25.928-20.508 11.132-4.98 23.34-7.47 36.621-7.47 23.73 0 42.383 5.42 55.957 16.26 13.574 10.84 20.361 25.732 20.361 44.677 0 9.18-2.832 17.871-8.496 26.074-5.566 8.106-13.721 14.698-24.463 19.776 11.328 4.101 20.215 10.351 26.66 18.75 6.446 8.3 9.668 18.603 9.668 30.908 0 19.043-7.324 34.277-21.972 45.703-14.649 11.426-33.887 17.139-57.715 17.139-13.965 0-26.953-2.637-38.965-7.91-11.914-5.372-20.947-12.745-27.1-22.12-6.152-9.472-9.228-20.214-9.228-32.226h49.658c0 6.543 2.637 12.207 7.91 16.992 5.274 4.785 11.768 7.178 19.483 7.178 8.691 0 15.625-2.393 20.8-7.178 5.176-4.883 7.764-11.084 7.764-18.604 0-10.742-2.686-18.359-8.057-22.851-5.371-4.492-12.793-6.738-22.265-6.738H82.154v-36.768z" fill="#5160E0"/></g><defs><filter id="filter0_f" x=".885" y=".643" width="214.98" height="279.287" filterUnits="userSpaceOnUse" color-interpolation-filters="sRGB"><feFlood flood-opacity="0" result="BackgroundImageFix"/><feBlend in="SourceGraphic" in2="BackgroundImageFix" result="shape"/><feGaussianBlur stdDeviation="15" result="effect1_foregroundBlur"/></filter></defs></svg>