<svg width="103" height="129" fill="none" xmlns="http://www.w3.org/2000/svg"><g opacity=".3" filter="url(#filter0_f)"><path d="M41.262 56.082h9.316c7.383 0 11.074-3.613 11.074-10.84 0-2.812-.879-5.097-2.636-6.855-1.758-1.797-4.239-2.696-7.442-2.696-2.617 0-4.902.762-6.855 2.286-1.914 1.523-2.871 3.418-2.871 5.683H22.102c0-4.492 1.25-8.496 3.75-12.012 2.5-3.515 5.957-6.25 10.37-8.203 4.454-1.992 9.337-2.988 14.65-2.988 9.491 0 16.952 2.168 22.382 6.504 5.43 4.336 8.144 10.293 8.144 17.871 0 3.672-1.132 7.148-3.398 10.43-2.227 3.242-5.488 5.879-9.785 7.91 4.531 1.64 8.086 4.14 10.664 7.5 2.578 3.32 3.867 7.441 3.867 12.363 0 7.617-2.93 13.711-8.789 18.281-5.86 4.571-13.555 6.856-23.086 6.856-5.586 0-10.781-1.055-15.586-3.164-4.765-2.149-8.379-5.098-10.84-8.848-2.46-3.789-3.691-8.086-3.691-12.89h19.863c0 2.617 1.055 4.882 3.164 6.796 2.11 1.915 4.707 2.871 7.793 2.871 3.477 0 6.25-.956 8.32-2.87C61.965 88.112 63 85.632 63 82.624c0-4.297-1.074-7.344-3.223-9.14-2.148-1.797-5.117-2.696-8.906-2.696h-9.61V56.082z" fill="#5160E0"/></g><defs><filter id="filter0_f" x=".754" y=".457" width="101.992" height="127.715" filterUnits="userSpaceOnUse" color-interpolation-filters="sRGB"><feFlood flood-opacity="0" result="BackgroundImageFix"/><feBlend in="SourceGraphic" in2="BackgroundImageFix" result="shape"/><feGaussianBlur stdDeviation="10" result="effect1_foregroundBlur"/></filter></defs></svg>