<svg width="198" height="88" fill="none" xmlns="http://www.w3.org/2000/svg"><path d="M14.21 2.378a2 2 0 00-4 0h4zm160.765 82.036a2 2 0 002.828 0l12.728-12.728a2 2 0 00-2.828-2.828l-11.314 11.314-11.314-11.314a2 2 0 10-2.828 2.828l12.728 12.728zM10.21 2.378c0 6.32 2.96 11.138 7.862 14.78 4.812 3.574 11.536 6.06 19.319 7.951 15.54 3.778 36.298 5.397 56.66 7.94 20.533 2.563 40.744 6.068 55.798 13.518 7.498 3.711 13.617 8.354 17.862 14.255 4.227 5.877 6.678 13.113 6.678 22.178h4c0-9.84-2.679-17.908-7.431-24.514-4.733-6.58-11.441-11.597-19.335-15.504C135.894 35.2 115.06 31.641 94.547 29.08c-20.681-2.583-40.968-4.151-56.212-7.857-7.609-1.85-13.712-4.181-17.878-7.276-4.076-3.028-6.247-6.733-6.247-11.569h-4z" fill="#8347F7"/></svg>