<svg width="198" height="88" fill="none" xmlns="http://www.w3.org/2000/svg"><path d="M184.179 2.378a2 2 0 014 0h-4zM23.414 84.414a2 2 0 01-2.828 0L7.858 71.686a2 2 0 112.828-2.828L22 80.172l11.314-11.314a2 2 0 112.828 2.828L23.414 84.414zM188.18 2.378c0 6.32-2.96 11.138-7.862 14.78-4.812 3.574-11.536 6.06-19.318 7.951-15.54 3.778-36.299 5.397-56.662 7.94-20.532 2.563-40.743 6.068-55.797 13.518-7.498 3.711-13.617 8.354-17.862 14.255C26.451 66.7 24 73.935 24 83h-4c0-9.84 2.68-17.908 7.431-24.514 4.734-6.58 11.441-11.597 19.335-15.504 15.73-7.783 36.563-11.341 57.076-13.902 20.682-2.583 40.968-4.151 56.212-7.857 7.609-1.85 13.712-4.181 17.878-7.276 4.076-3.028 6.247-6.733 6.247-11.569h4z" fill="#8347F7"/></svg>