<svg width="60" height="60" fill="none" xmlns="http://www.w3.org/2000/svg"><path d="M30 8.32a21.692 21.692 0 00-13.98 5.11.88.88 0 001.135 1.344A19.932 19.932 0 0130 10.078c10.985 0 19.922 8.937 19.922 19.922 0 10.985-8.937 19.922-19.922 19.922-10.985 0-19.922-8.937-19.922-19.922 0-4.698 1.668-9.26 4.696-12.845a.879.879 0 00-1.344-1.134A21.694 21.694 0 008.32 30c0 11.954 9.726 21.68 21.68 21.68 11.954 0 21.68-9.726 21.68-21.68 0-11.954-9.726-21.68-21.68-21.68z" fill="#303030"/><path d="M57.63 33.037A3.126 3.126 0 0060 30a3.126 3.126 0 00-2.37-3.037l-2.708-.676a25.281 25.281 0 00-.474-2.395l2.24-1.66a3.126 3.126 0 001.028-3.712 3.126 3.126 0 00-3.352-1.899l-2.76.41a25.393 25.393 0 00-1.356-2.026l1.436-2.395a3.126 3.126 0 00-.47-3.823 3.126 3.126 0 00-3.825-.471l-2.394 1.436a25.375 25.375 0 00-2.027-1.357l.41-2.759a3.125 3.125 0 00-1.898-3.352 3.126 3.126 0 00-3.713 1.028l-1.66 2.24c-.789-.197-1.59-.355-2.394-.474l-.676-2.707A3.126 3.126 0 0030 0c-1.44 0-2.688.975-3.037 2.371l-.676 2.707c-.804.119-1.605.278-2.395.474l-1.66-2.24a3.126 3.126 0 00-3.712-1.028 3.125 3.125 0 00-1.899 3.352l.41 2.76a25.31 25.31 0 00-2.026 1.356L12.61 8.316a3.126 3.126 0 00-3.824.47 3.126 3.126 0 00-.471 3.825l1.436 2.394a25.375 25.375 0 00-1.357 2.027l-2.759-.41a3.125 3.125 0 00-3.352 1.898 3.126 3.126 0 001.028 3.713l2.24 1.66c-.197.789-.355 1.59-.474 2.394l-2.707.676A3.126 3.126 0 000 30c0 1.439.975 2.688 2.37 3.037l2.708.676c.119.804.277 1.605.474 2.395l-2.24 1.66a3.126 3.126 0 00-1.028 3.712 3.126 3.126 0 003.352 1.899l2.76-.41c.418.695.872 1.374 1.356 2.026L8.316 47.39a3.126 3.126 0 00.47 3.824 3.126 3.126 0 003.825.47l2.394-1.435c.652.484 1.331.938 2.027 1.357l-.41 2.759a3.125 3.125 0 001.898 3.352c1.329.55 2.856.128 3.713-1.028l1.66-2.24c.789.196 1.59.355 2.394.474l.676 2.707A3.125 3.125 0 0030 60c1.44 0 2.688-.975 3.037-2.371l.676-2.707c.804-.119 1.605-.278 2.395-.474l1.66 2.24a3.126 3.126 0 003.712 1.028 3.125 3.125 0 001.899-3.352l-.41-2.76a25.368 25.368 0 002.026-1.356l2.394 1.436a3.126 3.126 0 003.824-.471 3.126 3.126 0 00.471-3.824l-1.436-2.394c.484-.652.938-1.33 1.357-2.027l2.759.41a3.125 3.125 0 003.352-1.898 3.126 3.126 0 00-1.028-3.713l-2.24-1.66c.197-.788.355-1.59.474-2.394l2.707-.676zm-4.706 4.13l2.717 2.013a1.37 1.37 0 01.451 1.628 1.37 1.37 0 01-1.47.832l-3.346-.498a.88.88 0 00-.894.435c-.558.98-1.193 1.93-1.887 2.82a.88.88 0 00-.06.992l1.741 2.905a1.37 1.37 0 01-.206 1.676 1.37 1.37 0 01-1.677.206l-2.904-1.742a.88.88 0 00-.992.06c-.891.695-1.84 1.33-2.82 1.888a.879.879 0 00-.435.894l.498 3.346a1.37 1.37 0 01-.832 1.47 1.37 1.37 0 01-1.628-.45l-2.014-2.718a.88.88 0 00-.94-.324c-1.09.3-2.21.521-3.329.66a.88.88 0 00-.745.658l-.82 3.285A1.37 1.37 0 0130 58.243a1.37 1.37 0 01-1.331-1.04l-.822-3.285a.88.88 0 00-.745-.659 23.39 23.39 0 01-3.33-.66.879.879 0 00-.938.325l-2.014 2.717a1.37 1.37 0 01-1.628.451 1.37 1.37 0 01-.832-1.47l.498-3.346a.88.88 0 00-.435-.894 23.55 23.55 0 01-2.82-1.887.879.879 0 00-.992-.06l-2.905 1.742a1.37 1.37 0 01-1.676-.207 1.37 1.37 0 01-.207-1.676l1.743-2.904a.879.879 0 00-.06-.993c-.695-.89-1.33-1.84-1.889-2.82a.88.88 0 00-.893-.435l-3.346.498a1.37 1.37 0 01-1.02-2.46l2.718-2.014a.88.88 0 00.324-.939c-.3-1.09-.521-2.21-.66-3.33a.879.879 0 00-.658-.744l-3.285-.821A1.37 1.37 0 011.757 30c0-.63.428-1.178 1.04-1.331l3.285-.822a.879.879 0 00.659-.745c.138-1.119.36-2.24.66-3.33a.88.88 0 00-.325-.938L4.358 20.82a1.37 1.37 0 01-.45-1.628 1.37 1.37 0 011.47-.832l3.346.498c.36.053.714-.12.893-.435.559-.98 1.194-1.929 1.888-2.82a.879.879 0 00.06-.992l-1.742-2.905a1.37 1.37 0 01.207-1.676 1.37 1.37 0 011.676-.207l2.905 1.743a.879.879 0 00.992-.06c.891-.695 1.84-1.33 2.82-1.889a.879.879 0 00.435-.893l-.498-3.346a1.37 1.37 0 01.832-1.47 1.37 1.37 0 011.628.45l2.014 2.718a.88.88 0 00.939.324c1.09-.3 2.21-.521 3.33-.659a.88.88 0 00.745-.66l.82-3.284A1.37 1.37 0 0130 1.757c.63 0 1.178.428 1.331 1.04l.822 3.285a.88.88 0 00.745.659c1.119.138 2.239.36 3.33.66a.88.88 0 00.938-.325l2.014-2.717a1.37 1.37 0 011.628-.451c.583.241.925.845.832 1.47l-.498 3.346a.879.879 0 00.435.893c.98.559 1.93 1.194 2.82 1.888.286.224.68.248.992.06l2.905-1.742a1.37 1.37 0 011.676.207 1.37 1.37 0 01.207 1.676l-1.743 2.905a.879.879 0 00.06.992c.695.89 1.33 1.84 1.889 2.82a.88.88 0 00.893.435l3.347-.498a1.37 1.37 0 011.47.832 1.37 1.37 0 01-.451 1.628l-2.718 2.014a.879.879 0 00-.324.939c.3 1.09.521 2.21.66 3.33.044.36.306.656.659.745l3.284.82c.612.154 1.04.701 1.04 1.332a1.37 1.37 0 01-1.04 1.331l-3.285.822a.879.879 0 00-.659.745c-.138 1.12-.36 2.24-.66 3.329a.879.879 0 00.325.94z" fill="#303030"/><path d="M25.605 30A4.4 4.4 0 0030 34.395 4.4 4.4 0 0034.395 30 4.4 4.4 0 0030 25.605 4.4 4.4 0 0025.605 30zm7.032 0A2.64 2.64 0 0130 32.637 2.64 2.64 0 0127.363 30 2.64 2.64 0 0130 27.363 2.64 2.64 0 0132.637 30zM28.05 16.386a2.587 2.587 0 00-2.313-.404 14.616 14.616 0 00-9.755 9.755 2.587 2.587 0 00.403 2.313 2.622 2.622 0 002.125 1.071h4.68a.88.88 0 00.852-.66 6.146 6.146 0 014.42-4.42c.388-.1.66-.45.66-.85v-4.68c0-.846-.391-1.621-1.072-2.125zm-.687 6.154a7.905 7.905 0 00-4.823 4.823h-4.03a.88.88 0 01-.713-.36.846.846 0 01-.133-.755 12.861 12.861 0 018.584-8.584.847.847 0 01.755.134c.229.17.36.429.36.713v4.029zM44.018 25.737a14.617 14.617 0 00-9.755-9.755 2.588 2.588 0 00-2.313.404 2.622 2.622 0 00-1.071 2.125v4.68c0 .4.271.75.66.85a6.146 6.146 0 014.42 4.42c.1.389.45.66.85.66h4.68c.847 0 1.621-.39 2.126-1.07a2.587 2.587 0 00.403-2.314zm-1.816 1.267a.88.88 0 01-.712.36h-4.03a7.904 7.904 0 00-4.823-4.824v-4.03a.88.88 0 01.36-.712.846.846 0 01.755-.134 12.862 12.862 0 018.584 8.584c.079.26.03.535-.133.755zM15.982 34.263a14.617 14.617 0 009.755 9.755 2.595 2.595 0 002.313-.404 2.622 2.622 0 001.071-2.124v-4.68a.879.879 0 00-.66-.852 6.146 6.146 0 01-4.42-4.42.879.879 0 00-.85-.66h-4.68c-.847 0-1.621.391-2.126 1.072a2.588 2.588 0 00-.403 2.313zm1.816-1.267a.88.88 0 01.713-.36h4.029a7.905 7.905 0 004.823 4.824v4.03a.88.88 0 01-.36.712.846.846 0 01-.755.134 12.862 12.862 0 01-8.584-8.584.846.846 0 01.133-.756zM41.49 30.879h-4.68a.879.879 0 00-.852.66 6.146 6.146 0 01-4.42 4.42c-.388.1-.66.45-.66.85v4.68c0 .847.391 1.621 1.071 2.126a2.595 2.595 0 002.314.403 14.616 14.616 0 009.755-9.755 2.588 2.588 0 00-.404-2.313 2.621 2.621 0 00-2.124-1.071zm.846 2.873a12.861 12.861 0 01-8.584 8.584.845.845 0 01-.756-.134.88.88 0 01-.36-.712v-4.03a7.905 7.905 0 004.824-4.823h4.03a.88.88 0 01.713.36c.163.22.212.496.133.755z" fill="#303030"/></svg>