<svg width="100" height="100" fill="none" xmlns="http://www.w3.org/2000/svg"><path d="M50 13.867a36.153 36.153 0 00-23.298 8.517 1.465 1.465 0 001.89 2.238A33.22 33.22 0 0150 16.797c18.308 0 33.203 14.895 33.203 33.203 0 18.308-14.895 33.203-33.203 33.203-18.308 0-33.203-14.895-33.203-33.203 0-7.83 2.779-15.433 7.825-21.408a1.465 1.465 0 00-2.238-1.89A36.156 36.156 0 0013.867 50c0 19.924 16.21 36.133 36.133 36.133 19.924 0 36.133-16.21 36.133-36.133 0-19.924-16.21-36.133-36.133-36.133z" fill="#D8F10B"/><path d="M96.048 55.061A5.21 5.21 0 00100 50a5.21 5.21 0 00-3.952-5.061l-4.51-1.128a42.128 42.128 0 00-.791-3.99l3.733-2.767a5.21 5.21 0 001.714-6.188 5.21 5.21 0 00-5.588-3.164l-4.599.684a42.274 42.274 0 00-2.26-3.379l2.393-3.99a5.21 5.21 0 00-.785-6.372 5.21 5.21 0 00-6.373-.785l-3.99 2.394a42.33 42.33 0 00-3.378-2.262l.684-4.598a5.21 5.21 0 00-3.164-5.588 5.21 5.21 0 00-6.188 1.714L60.18 9.253a42.074 42.074 0 00-3.99-.79L55.06 3.952A5.21 5.21 0 0050 0a5.21 5.21 0 00-5.061 3.952l-1.128 4.51a42.102 42.102 0 00-3.99.792L37.053 5.52a5.21 5.21 0 00-6.188-1.714 5.209 5.209 0 00-3.164 5.588l.684 4.599a42.223 42.223 0 00-3.378 2.261l-3.99-2.394a5.21 5.21 0 00-6.373.785 5.21 5.21 0 00-.785 6.373l2.394 3.99a42.31 42.31 0 00-2.262 3.379l-4.598-.685a5.208 5.208 0 00-5.588 3.164 5.21 5.21 0 001.714 6.188l3.733 2.767a42.064 42.064 0 00-.79 3.99L3.95 44.94A5.21 5.21 0 000 50a5.21 5.21 0 003.952 5.061l4.51 1.128c.2 1.34.464 2.675.791 3.99L5.52 62.947a5.21 5.21 0 00-1.714 6.188 5.21 5.21 0 005.588 3.164l4.599-.684a42.216 42.216 0 002.26 3.378l-2.393 3.99a5.21 5.21 0 00.785 6.373 5.21 5.21 0 006.373.785l3.99-2.394a42.276 42.276 0 003.379 2.261l-.685 4.599a5.209 5.209 0 003.164 5.588 5.21 5.21 0 006.188-1.714l2.767-3.734c1.315.328 2.65.593 3.99.791l1.128 4.511A5.209 5.209 0 0050 100a5.21 5.21 0 005.061-3.952l1.128-4.51a42.09 42.09 0 003.99-.791l2.767 3.733a5.21 5.21 0 006.188 1.714 5.209 5.209 0 003.164-5.588l-.684-4.599a42.276 42.276 0 003.378-2.261l3.99 2.394a5.21 5.21 0 006.374-.785 5.21 5.21 0 00.784-6.373l-2.394-3.99a42.216 42.216 0 002.261-3.378l4.599.684a5.209 5.209 0 005.588-3.164 5.21 5.21 0 00-1.714-6.188l-3.733-2.767c.327-1.315.592-2.65.79-3.99l4.511-1.128zm-7.841 6.883l4.529 3.356a2.284 2.284 0 01.751 2.713 2.282 2.282 0 01-2.45 1.387l-5.578-.83a1.466 1.466 0 00-1.488.724 39.283 39.283 0 01-3.147 4.7 1.465 1.465 0 00-.1 1.655l2.903 4.84c.542.902.4 2.051-.344 2.795a2.283 2.283 0 01-2.794.343l-4.84-2.904a1.465 1.465 0 00-1.654.101 39.273 39.273 0 01-4.7 3.147c-.526.299-.814.89-.725 1.488l.83 5.578a2.284 2.284 0 01-1.387 2.45 2.284 2.284 0 01-2.714-.751l-3.355-4.53c-.36-.486-.981-.7-1.566-.54-1.817.5-3.684.87-5.55 1.1a1.465 1.465 0 00-1.24 1.098l-1.37 5.474A2.283 2.283 0 0150 97.07a2.284 2.284 0 01-2.219-1.732l-1.368-5.474a1.466 1.466 0 00-1.242-1.099c-1.866-.23-3.733-.6-5.55-1.099a1.466 1.466 0 00-1.565.54l-3.356 4.53a2.284 2.284 0 01-2.713.751 2.284 2.284 0 01-1.387-2.45l.83-5.578a1.465 1.465 0 00-.724-1.488 39.257 39.257 0 01-4.7-3.147 1.465 1.465 0 00-1.655-.1l-4.84 2.904c-.902.54-2.05.4-2.795-.344a2.284 2.284 0 01-.344-2.795l2.904-4.84a1.465 1.465 0 00-.1-1.654 39.259 39.259 0 01-3.147-4.7 1.466 1.466 0 00-1.488-.725l-5.579.83a2.285 2.285 0 01-2.45-1.387 2.284 2.284 0 01.752-2.713l4.53-3.356c.485-.36.7-.982.54-1.565a39.02 39.02 0 01-1.1-5.55 1.464 1.464 0 00-1.098-1.241l-5.474-1.369A2.285 2.285 0 012.93 50c0-1.052.712-1.964 1.732-2.22l5.474-1.367a1.465 1.465 0 001.098-1.242c.23-1.866.6-3.733 1.1-5.55a1.465 1.465 0 00-.54-1.565L7.263 34.7a2.284 2.284 0 01-.751-2.713 2.283 2.283 0 012.45-1.387l5.578.83a1.464 1.464 0 001.488-.724 39.293 39.293 0 013.146-4.7 1.465 1.465 0 00.101-1.655l-2.904-4.84c-.54-.902-.4-2.051.344-2.795a2.284 2.284 0 012.795-.344l4.84 2.904c.52.312 1.177.272 1.654-.1a39.285 39.285 0 014.7-3.147c.526-.299.814-.89.725-1.488l-.83-5.578a2.284 2.284 0 011.387-2.45 2.284 2.284 0 012.713.751l3.356 4.53c.36.486.982.7 1.566.54 1.817-.5 3.684-.87 5.549-1.099a1.465 1.465 0 001.242-1.099l1.368-5.473A2.283 2.283 0 0150 2.93c1.052 0 1.964.712 2.219 1.732l1.368 5.474c.148.588.641 1.025 1.242 1.099 1.865.23 3.733.6 5.55 1.099a1.465 1.465 0 001.565-.54l3.356-4.53a2.284 2.284 0 012.713-.751 2.284 2.284 0 011.387 2.45l-.83 5.578c-.089.598.2 1.19.725 1.488a39.269 39.269 0 014.7 3.147 1.465 1.465 0 001.654.1l4.84-2.904c.902-.54 2.051-.4 2.795.344.743.744.885 1.893.344 2.795l-2.904 4.84a1.465 1.465 0 00.1 1.654 39.269 39.269 0 013.147 4.7c.3.526.891.813 1.489.725l5.578-.83a2.284 2.284 0 012.45 1.387 2.284 2.284 0 01-.752 2.713l-4.529 3.356c-.486.36-.7.982-.54 1.566a39.07 39.07 0 011.099 5.55c.074.6.51 1.094 1.098 1.24l5.474 1.37A2.283 2.283 0 0197.07 50a2.284 2.284 0 01-1.732 2.22l-5.474 1.367a1.465 1.465 0 00-1.098 1.242c-.23 1.867-.6 3.734-1.1 5.55-.16.583.055 1.205.54 1.565z" fill="#D8F10B"/><path d="M42.676 50c0 4.039 3.285 7.324 7.324 7.324S57.324 54.04 57.324 50 54.04 42.676 50 42.676 42.676 45.96 42.676 50zm11.718 0A4.4 4.4 0 0150 54.395 4.4 4.4 0 0145.605 50 4.4 4.4 0 0150 45.605 4.4 4.4 0 0154.395 50zM46.75 27.31a4.313 4.313 0 00-3.855-.673 24.36 24.36 0 00-16.259 16.258 4.312 4.312 0 00.673 3.856 4.37 4.37 0 003.542 1.784h7.8c.668 0 1.252-.452 1.418-1.1a10.244 10.244 0 017.367-7.366c.647-.166 1.1-.75 1.1-1.418v-7.8a4.37 4.37 0 00-1.785-3.542zm-1.145 10.257a13.175 13.175 0 00-8.038 8.039H30.85c-.473 0-.906-.219-1.188-.6a1.41 1.41 0 01-.223-1.26A21.436 21.436 0 0143.746 29.44a1.41 1.41 0 011.26.223c.38.282.6.716.6 1.188v6.716zM73.364 42.895a24.362 24.362 0 00-16.26-16.259 4.312 4.312 0 00-3.855.673 4.37 4.37 0 00-1.784 3.542v7.8c0 .668.452 1.252 1.1 1.418a10.244 10.244 0 017.366 7.366c.167.648.75 1.1 1.419 1.1h7.8a4.37 4.37 0 003.541-1.784 4.312 4.312 0 00.673-3.856zm-3.026 2.111c-.283.381-.716.6-1.189.6h-6.716a13.174 13.174 0 00-8.038-8.04v-6.715c0-.473.218-.906.599-1.188a1.41 1.41 0 011.26-.223A21.437 21.437 0 0170.56 43.747c.132.432.05.89-.222 1.26zM26.636 57.105a24.362 24.362 0 0016.26 16.259 4.324 4.324 0 003.856-.673 4.37 4.37 0 001.783-3.542v-7.8c0-.668-.452-1.252-1.1-1.418a10.244 10.244 0 01-7.366-7.366 1.465 1.465 0 00-1.419-1.1h-7.8c-1.41 0-2.7.65-3.541 1.784a4.313 4.313 0 00-.673 3.856zm3.027-2.11c.282-.382.715-.6 1.188-.6h6.716a13.175 13.175 0 008.038 8.038v6.716c0 .473-.218.906-.599 1.188a1.41 1.41 0 01-1.26.223A21.437 21.437 0 0129.44 56.253a1.41 1.41 0 01.223-1.259zM69.15 51.465h-7.8c-.669 0-1.253.452-1.42 1.1a10.244 10.244 0 01-7.366 7.366c-.647.166-1.1.75-1.1 1.418v7.8c0 1.41.651 2.701 1.785 3.542a4.325 4.325 0 003.856.673 24.36 24.36 0 0016.258-16.259 4.312 4.312 0 00-.672-3.856 4.369 4.369 0 00-3.542-1.784zm1.41 4.788A21.436 21.436 0 0156.254 70.56a1.41 1.41 0 01-1.26-.223c-.38-.282-.6-.715-.6-1.188v-6.716a13.174 13.174 0 008.04-8.038h6.715c.473 0 .906.218 1.189.6.272.367.354.826.222 1.259z" fill="#D8F10B"/></svg>