<svg width="69" height="75" fill="none" xmlns="http://www.w3.org/2000/svg"><path d="M34.285 59.41c16.406 0 29.706-13.299 29.706-29.705C63.99 13.3 50.69 0 34.285 0 17.88 0 4.58 13.3 4.58 29.705c0 16.406 13.3 29.706 29.706 29.706z" fill="#DB4356"/><path d="M10.22 47.084L0 64.8l11.93-.633 5.419 10.648 9.455-16.392c-6.775-1.753-12.592-5.832-16.583-11.34zM58.41 46.995a29.685 29.685 0 01-16.54 11.4l9.485 16.42 5.42-10.647 11.929.633-10.295-17.806z" fill="#9A1E2D"/><path d="M34.286 51.237c11.891 0 21.531-9.64 21.531-21.532 0-11.891-9.64-21.531-21.531-21.531-11.892 0-21.532 9.64-21.532 21.531 0 11.892 9.64 21.532 21.532 21.532z" fill="#fff"/><path d="M49.042 27.378c.663-.648.295-1.782-.618-1.914l-8.498-1.237a1.108 1.108 0 01-.84-.619l-3.799-7.702a1.123 1.123 0 00-2.018 0l-3.785 7.702a1.17 1.17 0 01-.839.619l-8.498 1.237c-.913.132-1.281 1.266-.618 1.914l6.141 5.995c.265.265.383.633.324.986l-1.443 8.454c-.162.913.81 1.62 1.635 1.178L33.785 40a1.097 1.097 0 011.046 0l7.599 3.991c.825.427 1.782-.265 1.635-1.178l-1.458-8.454a1.108 1.108 0 01.324-.986l6.111-5.995z" fill="#FFB800"/></svg>