<svg width="23" height="10" fill="none" xmlns="http://www.w3.org/2000/svg"><path d="M3.96 4.5L5.515.469h1.898L4.43 7.506l-.24.463c-.442.77-1.118 1.154-2.028 1.154L1.547 9.1l-.018-1.412c.094.015.246.023.457.023.246 0 .444-.043.592-.129.152-.086.28-.244.381-.475l.217-.556L.182.469h1.892L3.961 4.5zm7.167 1.014h-1.014V9H8.355V.469h1.758v3.416h.803L13.002.469h2.144l-2.63 4.037L15.422 9h-2.098l-2.197-3.486zm6.732.48V9h-1.757V.469h3.328c.64 0 1.203.117 1.687.351.488.235.863.569 1.125 1.002.262.43.393.92.393 1.471 0 .836-.287 1.496-.862 1.98-.57.48-1.36.721-2.373.721h-1.54zm0-1.424h1.57c.466 0 .819-.11 1.061-.328.246-.219.37-.531.37-.937 0-.418-.124-.756-.37-1.014s-.586-.39-1.02-.398h-1.61V4.57z" fill="#fff"/></svg>