<svg width="40" height="40" fill="none" xmlns="http://www.w3.org/2000/svg"><path d="M19.462 15L25 20.192l-5.538 5.193M24 20H9" stroke="#FFF" stroke-width="2" stroke-linecap="round" stroke-linejoin="round"/><path d="M11.515 28.485A1 1 0 0010.1 29.9l1.415-1.415zM10.1 10.101a1 1 0 001.415 1.414L10.1 10.1zm18.385 1.414c4.687 4.686 4.687 12.284 0 16.97L29.9 29.9c5.467-5.468 5.467-14.332 0-19.8l-1.415 1.415zm0 16.97c-4.686 4.687-12.284 4.687-16.97 0L10.1 29.9c5.468 5.467 14.332 5.467 19.8 0l-1.415-1.415zm-16.97-16.97c4.686-4.687 12.284-4.687 16.97 0L29.9 10.1c-5.468-5.467-14.332-5.467-19.8 0l1.415 1.415z" fill="#FFF"/></svg>