<svg width="162" height="114" viewBox="0 0 162 114" fill="none" xmlns="http://www.w3.org/2000/svg">
<path d="M157.325 24.9188C158.066 24.0998 159.33 24.0366 160.15 24.7777C160.969 25.5189 161.032 26.7836 160.291 27.6027L157.325 24.9188ZM3.36125 75.0965C2.78577 74.1537 3.08355 72.9228 4.02635 72.3473L19.3903 62.9693C20.3331 62.3938 21.564 62.6916 22.1394 63.6344C22.7149 64.5772 22.4171 65.808 21.4743 66.3835L7.81748 74.7196L16.1536 88.3764C16.729 89.3192 16.4313 90.55 15.4884 91.1255C14.5456 91.701 13.3148 91.4032 12.7393 90.4604L3.36125 75.0965ZM160.291 27.6027C138.991 51.1416 78.1014 93.7812 4.59806 75.9984L5.53866 72.1105C77.072 89.4167 136.563 47.8628 157.325 24.9188L160.291 27.6027Z" fill="#8347F7"/>
</svg>
