<svg width="28" height="29" fill="none" xmlns="http://www.w3.org/2000/svg"><path d="M2 15a1 1 0 10-2 0h2zM14 1a1 1 0 100 2V1zm12 14c0 6.627-5.373 12-12 12v2c7.732 0 14-6.268 14-14h-2zM14 27C7.373 27 2 21.627 2 15H0c0 7.732 6.268 14 14 14v-2zm0-24c6.627 0 12 5.373 12 12h2c0-7.732-6.268-14-14-14v2z" fill="#FFF"/><path stroke="#FFF" stroke-width="2" stroke-linecap="round" d="M5.5 1v9M1 5.5h9"/><path d="M12.08 16.086c-.063-.126-.15-.3-.233-.456a5.177 5.177 0 00-.133-.236 1.719 1.719 0 00-.21-.285h0l-.01-.01c-.51-.526-.823-.948-.916-1.418v-.002c-.053-.265-.044-.42-.03-.508a.9.9 0 01.097-.267l.096-.194.008-.216.015-.434.001-.028v-.029a16.154 16.154 0 01-.001-1.078c.016-.359.056-.597.102-.724h0l.002-.006c.46-1.31 1.9-2.13 3.12-2.194.553.014.998.14 1.468.4h0l.005.003c.173.096.37.139.433.152l.006.002c.098.021.2.04.266.05l.002.001h0c.186.033.3.055.396.09.084.03.108.054.113.06l.002.002c.195.217.332.473.35 1.296l.003.113.027.109c.141.56.169 1.401.169 2.181v.254l.12.223a.737.737 0 01.093.242c.014.082.024.234-.03.502-.094.47-.408.892-.91 1.412h0l-.007.007c-.101.107-.177.229-.213.288a4.791 4.791 0 00-.136.241c-.084.157-.17.33-.23.456l-.002.001v.002c-.173.351-.293.591-.406.755l-.178.256V18.015c0 .723.49 1.413 1.263 1.568l2.546.526c.235.051.457.134.657.244A8.121 8.121 0 0114 22.8a8.126 8.126 0 01-5.795-2.447c.199-.108.42-.191.653-.243l2.549-.526c.766-.156 1.263-.839 1.263-1.568v-.917l-.178-.257c-.114-.164-.236-.404-.411-.756zm0 0l-.894.447.894-.447s0 0 0 0z" fill="#FFF" stroke="#FFF" stroke-width="2"/></svg>