<svg width="131" height="60" fill="none" xmlns="http://www.w3.org/2000/svg"><g filter="url(#filter0_d)"><rect x="4" y="2" width="123" height="52" rx="26" fill="#303030"/></g><path d="M71.929 33.746a1.791 1.791 0 001.383-1.744v-10.87c0-1.596-1.93-2.395-3.058-1.266a1.791 1.791 0 00-.525 1.266v10.87a1.791 1.791 0 002.2 1.744zM83.905 28.807c.54-.323.87-.906.87-1.535v-5.423c0-.475-.189-.93-.525-1.267-1.128-1.128-3.057-.329-3.057 1.267v5.422c0 1.393 1.518 2.253 2.712 1.536zM77.883 31.874a1.791 1.791 0 001.16-1.676v-14.08c0-.476-.188-.931-.524-1.267-1.129-1.129-3.058-.33-3.058 1.266v14.08a1.791 1.791 0 002.422 1.677z" fill="#DFF300"/><path d="M92.326 16.807c-.251-.407-2.178 2.03-2.178 2.509 0 7.164-15.761 15.761-27.941 15.761 13.612 0 30.807-7.164 30.807-15.761 0-.975-.252-1.804-.688-2.509z" fill="#4BC6EC"/><path d="M32.005 32.82a.906.906 0 01-.906-.906V22.91c0-.58-.47-1.05-1.05-1.05h-.196a.853.853 0 110-1.705h4.305a.853.853 0 010 1.705h-.197c-.58 0-1.05.47-1.05 1.05v9.005c0 .5-.405.907-.906.907zM39.844 27.191a1.786 1.786 0 01-1.786 1.797h-.561c-.677 0-1.225.548-1.225 1.225a.86.86 0 00.243.659.895.895 0 00.245.157c.25.108.551.133.803.027a.716.716 0 00.313-.256c.185-.314.476-.602.84-.602h.241c.526 0 .978.426.816.927a2.603 2.603 0 01-.593.994 2.557 2.557 0 01-.852.587c-.357.144-.74.215-1.125.208a2.78 2.78 0 01-1.433-.351 2.422 2.422 0 01-1.182-1.763 6.355 6.355 0 01-.072-1.017v-2.945c-.003-.34.021-.68.072-1.017.038-.286.128-.563.265-.817.193-.388.484-.72.846-.96a2.78 2.78 0 011.432-.35c.388-.007.773.067 1.132.214.326.131.62.331.86.587.483.555.74 1.271.717 2.007l.004.69zm-3.572-.525a.888.888 0 001.776 0v-.129a1.11 1.11 0 00-.236-.773.861.861 0 00-.652-.258.832.832 0 00-.645.258 1.082 1.082 0 00-.243.773v.13zM42.09 32.82a.91.91 0 01-.91-.91v-7.203c0-.5.406-.906.906-.906h.462c.245 0 .444.199.444.444v.42a.023.023 0 00.043.014c.19-.278.43-.518.71-.706.303-.194.657-.291 1.017-.28.244-.004.486.034.716.115.227.079.433.209.602.38.194.204.34.449.43.716.114.329.168.676.158 1.024v5.986a.935.935 0 01-1.87 0v-5.34a1.217 1.217 0 00-.23-.782.794.794 0 00-.295-.222.973.973 0 00-.765 0c-.25.113-.393.377-.458.643-.044.175-.061.357-.05.54v5.158a.91.91 0 01-.91.91zM51.95 32.82a.231.231 0 01-.232-.23v-.096a.194.194 0 00-.336-.132 1.74 1.74 0 01-.359.294 1.676 1.676 0 01-.444.2c-.192.046-.39.068-.587.065a1.619 1.619 0 01-1.584-.853 2.286 2.286 0 01-.229-.716 7.51 7.51 0 01-.072-1.19v-3.467c-.007-.478.01-.956.05-1.433a1.72 1.72 0 01.839-1.332 1.812 1.812 0 011.01-.23c.333-.006.662.076.953.237.286.18.528.42.71.705a.023.023 0 00.042-.012v-3.57a.906.906 0 011.813 0v10.858a.903.903 0 01-.903.903h-.671zm-2.03-2.937c-.014.31.06.619.215.889a.715.715 0 00.674.336.796.796 0 00.659-.308c.174-.233.262-.519.25-.81v-3.503a.975.975 0 00-.258-.716.86.86 0 00-.295-.21.986.986 0 00-.763-.015.716.716 0 00-.31.268c-.122.219-.186.465-.186.716l.014 3.353zM60.278 27.2a1.794 1.794 0 01-1.794 1.788h-.569c-.676 0-1.225.548-1.225 1.225a.88.88 0 00.237.659c.08.07.171.127.269.165.242.097.527.114.765.009a.717.717 0 00.298-.246c.184-.318.481-.602.849-.602h.223c.531 0 .988.43.822.936-.01.033-.022.065-.034.098-.123.33-.312.632-.556.886a2.559 2.559 0 01-.852.588 3.155 3.155 0 01-2.572-.143 2.472 2.472 0 01-.917-.946 2.543 2.543 0 01-.265-.817 7.307 7.307 0 01-.072-1.017v-2.945c0-.34.024-.68.072-1.017a2.406 2.406 0 011.182-1.762 2.8 2.8 0 011.433-.352c.385-.004.768.069 1.124.215.33.13.626.33.867.588.484.554.74 1.27.717 2.006l-.002.683zm-3.588-.534a.888.888 0 001.777 0v-.129a1.082 1.082 0 00-.243-.773.831.831 0 00-.645-.258.845.845 0 00-.652.258 1.11 1.11 0 00-.237.773v.13zM62.515 32.82a.91.91 0 01-.91-.91v-7.2a.91.91 0 01.91-.91h.62c.16 0 .29.13.29.29 0 .254.31.393.516.243.18-.132.37-.252.566-.36.181-.088.37-.156.565-.203.412-.099.753.26.753.682v.596c0 .27-.281.458-.552.458-.209.004-.416.038-.616.1-.22.065-.422.178-.594.33-.2.161-.36.367-.466.601a2.22 2.22 0 00-.172.925v4.449a.91.91 0 01-.91.91zM68.941 39.448c-.003-.34.02-.681.072-1.018.034-.296.124-.582.265-.845.212-.394.53-.721.917-.946a3.175 3.175 0 012.866 0c.399.221.728.549.953.946.134.255.223.531.265.817.047.337.071.677.071 1.017v2.966c0 .34-.024.68-.071 1.017a2.406 2.406 0 01-1.182 1.763 3.175 3.175 0 01-2.866 0 2.472 2.472 0 01-.917-.946 2.38 2.38 0 01-.265-.817 6.343 6.343 0 01-.072-1.017l-.036-2.937zm1.813 3.252c-.022.28.065.557.243.774a.831.831 0 00.645.258.846.846 0 00.652-.258 1.11 1.11 0 00.237-.774v-3.539a1.11 1.11 0 00-.237-.774.846.846 0 00-.652-.258.832.832 0 00-.645.258 1.082 1.082 0 00-.243.774v3.54zM76.59 45.466a.906.906 0 01-.907-.907v-7.236c0-.5.406-.906.906-.906h.702c.113 0 .205.092.205.205 0 .202.288.302.44.167.087-.077.18-.149.276-.214a1.74 1.74 0 011.017-.273c.232 0 .462.039.681.115.23.074.436.205.602.38.194.205.34.45.43.716.113.327.167.672.157 1.018v6.032a.903.903 0 11-1.805 0v-5.366a1.211 1.211 0 00-.23-.781.795.795 0 00-.295-.222.973.973 0 00-.765 0c-.25.112-.393.376-.46.642-.043.176-.06.358-.048.54v5.184c0 .5-.406.906-.907.906zM82.496 33.677a.906.906 0 011.813 0v9.217c-.028.222.02.447.134.638.032.053.077.1.13.133.312.204.639.492.639.865v.185c0 .468-.378.856-.843.796a5.908 5.908 0 01-.29-.045 1.985 1.985 0 01-.852-.387 1.655 1.655 0 01-.544-.717 3.584 3.584 0 01-.187-1.29v-9.395zM86.831 34.59a.916.916 0 01-.917-.91c0-.502.415-.91.917-.91.503 0 .917.408.917.91 0 .503-.414.91-.917.91zm-.014 10.861a.917.917 0 01-.903-.917v-7.2a.917.917 0 111.834 0v7.2c0 .512-.42.925-.931.917zM90.123 45.466a.906.906 0 01-.906-.907v-7.232a.91.91 0 01.91-.91h.707c.112 0 .203.09.203.202 0 .2.29.3.44.167.087-.076.179-.147.276-.211a1.748 1.748 0 011.01-.258c.23 0 .457.038.674.114.23.075.44.206.609.38.191.205.335.45.422.717.116.326.172.67.165 1.017v6.018a.903.903 0 01-1.805 0v-5.366c.02-.28-.062-.557-.23-.781a.79.79 0 00-.295-.223.978.978 0 00-.767-.002.759.759 0 00-.313.26 1.777 1.777 0 00-.194.925v5.183c0 .5-.405.907-.906.907zM101.391 39.836a1.807 1.807 0 01-1.807 1.775h-.574c-.68 0-1.232.552-1.232 1.233a.86.86 0 00.244.659.895.895 0 00.244.157c.25.108.551.133.803.027a.716.716 0 00.314-.256c.184-.318.479-.609.846-.609h.215c.513 0 .954.414.801.904a2.601 2.601 0 01-.601 1.023c-.242.25-.532.448-.853.58-.356.147-.74.22-1.125.216a2.78 2.78 0 01-1.432-.351 2.522 2.522 0 01-.889-.946 2.379 2.379 0 01-.265-.817 6.355 6.355 0 01-.072-1.017v-2.966c-.003-.34.02-.681.072-1.018a2.38 2.38 0 01.265-.845c.215-.392.531-.72.917-.946a2.78 2.78 0 011.433-.35c.388-.009.773.062 1.132.207.323.136.615.336.86.587.489.554.746 1.275.716 2.014l-.012.739zm-3.613-.553a.896.896 0 101.791 0v-.122a1.11 1.11 0 00-.236-.774.847.847 0 00-.652-.258.829.829 0 00-.645.258 1.082 1.082 0 00-.258.774v.122z" fill="#fff"/><defs><filter id="filter0_d" x="0" y="0" width="131" height="60" filterUnits="userSpaceOnUse" color-interpolation-filters="sRGB"><feFlood flood-opacity="0" result="BackgroundImageFix"/><feColorMatrix in="SourceAlpha" values="0 0 0 0 0 0 0 0 0 0 0 0 0 0 0 0 0 0 127 0"/><feOffset dy="2"/><feGaussianBlur stdDeviation="2"/><feColorMatrix values="0 0 0 0 0 0 0 0 0 0 0 0 0 0 0 0 0 0 0.24 0"/><feBlend in2="BackgroundImageFix" result="effect1_dropShadow"/><feBlend in="SourceGraphic" in2="effect1_dropShadow" result="shape"/></filter></defs></svg>