<svg width="43" height="75" viewBox="0 0 43 75" fill="none" xmlns="http://www.w3.org/2000/svg">
<path d="M4.3044 72.1562C4.29685 73.2608 3.39532 74.1501 2.29078 74.1425C1.18623 74.135 0.296943 73.2335 0.30449 72.1289L4.3044 72.1562ZM41.3149 6.22197C42.372 6.54216 42.9694 7.65871 42.6492 8.71586L37.4314 25.943C37.1112 27.0001 35.9946 27.5975 34.9375 27.2773C33.8803 26.9571 33.2829 25.8406 33.6031 24.7835L38.2412 9.47046L22.9282 4.83234C21.8711 4.51215 21.2737 3.3956 21.5939 2.33845C21.914 1.28131 23.0306 0.683899 24.0877 1.00409L41.3149 6.22197ZM0.30449 72.1289C0.406541 57.1932 8.39187 23.1731 39.7916 6.37265L41.6786 9.89954C12.066 25.7439 4.40097 58.023 4.3044 72.1562L0.30449 72.1289Z" fill="#8347F7"/>
</svg>
